<?xml version="1.0" encoding="UTF-8" standalone="no"?>
<!-- Created with Inkscape (http://www.inkscape.org/) -->

<svg
   width="196.73994"
   height="29.310001"
   viewBox="0 0 52.054111 7.7549378"
   version="1.1"
   id="svg49397"
   inkscape:version="1.1.2 (b8e25be833, 2022-02-05)"
   sodipodi:docname="logo.svg"
   xmlns:inkscape="http://www.inkscape.org/namespaces/inkscape"
   xmlns:sodipodi="http://sodipodi.sourceforge.net/DTD/sodipodi-0.dtd"
   xmlns:xlink="http://www.w3.org/1999/xlink"
   xmlns="http://www.w3.org/2000/svg"
   xmlns:svg="http://www.w3.org/2000/svg">
  <sodipodi:namedview
     id="namedview49399"
     pagecolor="#ffffff"
     bordercolor="#666666"
     borderopacity="1.0"
     inkscape:pageshadow="2"
     inkscape:pageopacity="0.0"
     inkscape:pagecheckerboard="0"
     inkscape:document-units="mm"
     showgrid="false"
     fit-margin-top="0"
     fit-margin-left="0"
     fit-margin-right="0"
     fit-margin-bottom="0"
     inkscape:zoom="6.5139168"
     inkscape:cx="80.443152"
     inkscape:cy="60.792917"
     inkscape:window-width="3840"
     inkscape:window-height="2066"
     inkscape:window-x="-11"
     inkscape:window-y="-11"
     inkscape:window-maximized="1"
     inkscape:current-layer="layer1"
     units="px" />
  <defs
     id="defs49394">
    <color-profile
       name="Agfa-:-Swop-Standard"
       xlink:href="data:img/png"
       id="color-profile5120" />
  </defs>
  <g
     inkscape:label="Слой 1"
     inkscape:groupmode="layer"
     id="layer1"
     transform="translate(-25.900865,-73.400745)">
    <g
       aria-label="вашбухгалтер"
       id="text54111"
       style="font-size:7.9375px;line-height:1.25;stroke-width:0.264583">
      <path
         d="m 29.94899,78.290245 q 0,0.3175 -0.134938,0.547687 -0.134937,0.22225 -0.373062,0.365125 -0.238125,0.142875 -0.563563,0.214313 -0.3175,0.0635 -0.682625,0.0635 -0.254,0 -0.436562,-0.0079 -0.182563,0 -0.3175,-0.0079 -0.134938,-0.0079 -0.238125,-0.01588 -0.09525,0 -0.182563,0 h -1.119187 v -0.309563 q 0.246062,-0.127 0.523875,-0.1905 v -2.968625 q -0.301625,-0.05556 -0.523875,-0.1905 V 75.48037 h 1.071562 q 0.381,0 0.674688,-0.01587 0.293687,-0.01587 0.587375,-0.01587 0.754062,0 1.143,0.214312 0.396875,0.206375 0.396875,0.73025 0,0.1905 -0.08731,0.341313 -0.07938,0.150812 -0.22225,0.261937 -0.134937,0.111125 -0.301625,0.182563 -0.166687,0.07144 -0.333375,0.103187 0.22225,0.01587 0.420688,0.08731 0.206375,0.07144 0.357187,0.198437 0.15875,0.127 0.246063,0.309563 0.09525,0.174625 0.09525,0.41275 z m -2.38125,0.706437 q 0.111125,0.02381 0.238125,0.03175 0.134937,0 0.230187,0 0.357188,0 0.53975,-0.182562 0.182563,-0.182563 0.182563,-0.531813 0,-0.341312 -0.214313,-0.508 -0.206375,-0.174625 -0.547687,-0.174625 H 27.56774 Z m 0,-1.706562 0.706437,-0.07937 q 0.127,-0.07937 0.246063,-0.254 0.119062,-0.182563 0.119062,-0.4445 0,-0.611188 -0.706437,-0.611188 -0.08731,0 -0.182563,0.0079 -0.09525,0 -0.182562,0.02381 z"
         style="font-weight:bold;font-family:'PT Serif';-inkscape-font-specification:'PT Serif, Bold';fill:#ffffff"
         id="path4904" />
      <path
         d="m 33.949489,78.298182 q 0,0.174625 0,0.301625 0.0079,0.127 0.02381,0.269875 l 0.547687,0.07937 v 0.277813 q -0.09525,0.04762 -0.261937,0.09525 -0.15875,0.04762 -0.341313,0.09525 -0.174625,0.03969 -0.34925,0.0635 -0.174625,0.03175 -0.309562,0.04763 h -0.269875 q -0.07937,-0.182563 -0.09525,-0.365125 -0.01588,-0.182563 -0.02381,-0.4445 h -0.03969 q -0.03969,0.15875 -0.134938,0.309562 -0.09525,0.142875 -0.246062,0.261938 -0.142875,0.111125 -0.341313,0.182562 -0.198437,0.07144 -0.4445,0.07144 -0.261937,0 -0.484187,-0.07937 -0.22225,-0.07937 -0.388938,-0.22225 -0.166687,-0.142875 -0.261937,-0.341313 -0.09525,-0.206375 -0.09525,-0.460375 0,-0.357187 0.134937,-0.587375 0.134938,-0.230187 0.420688,-0.373062 0.293687,-0.150813 0.746125,-0.22225 0.460375,-0.07144 1.11125,-0.103188 0.0635,-0.682625 -0.05556,-1.000125 -0.119062,-0.3175 -0.515937,-0.3175 -0.246063,0 -0.452438,0.07937 l -0.373062,0.9525 h -0.34925 q -0.0635,-0.09525 -0.127,-0.214312 -0.05556,-0.127 -0.111125,-0.261938 -0.04763,-0.142875 -0.08731,-0.28575 -0.03175,-0.142875 -0.04763,-0.277812 0.301625,-0.206375 0.777875,-0.325438 0.47625,-0.119062 1.008063,-0.119062 0.452437,0 0.738187,0.103187 0.28575,0.09525 0.4445,0.269875 0.166688,0.166688 0.230188,0.396875 0.0635,0.230188 0.0635,0.492125 0,0.47625 -0.02381,0.865188 -0.01588,0.381 -0.01588,0.785812 z m -1.785937,0.611188 q 0.166687,0 0.28575,-0.0635 0.119062,-0.0635 0.198437,-0.150813 0.08731,-0.08731 0.127,-0.1905 0.04763,-0.103187 0.07144,-0.182562 v -0.79375 q -0.373063,0.0079 -0.611188,0.04762 -0.238125,0.03969 -0.373062,0.134937 -0.134938,0.08731 -0.1905,0.230188 -0.04763,0.134937 -0.04763,0.333375 0,0.301625 0.142875,0.468312 0.142875,0.166688 0.396875,0.166688 z"
         style="font-weight:bold;font-family:'PT Serif';-inkscape-font-specification:'PT Serif, Bold';fill:#ffffff"
         id="path4906" />
      <path
         d="m 39.902608,78.996682 v -3.01625 Q 39.70417,75.92487 39.54542,75.789932 V 75.48037 h 2.024063 v 0.309562 q -0.111125,0.0635 -0.238125,0.111125 -0.127,0.04763 -0.28575,0.07937 v 2.968625 q 0.293687,0.0635 0.523875,0.1905 v 0.309563 h -6.69925 v -0.309563 q 0.22225,-0.127 0.523875,-0.1905 v -2.968625 q -0.134938,-0.01587 -0.261938,-0.05556 -0.127,-0.04762 -0.261937,-0.134938 V 75.48037 h 2.024062 v 0.309562 q -0.150812,0.127 -0.357187,0.1905 v 3.01625 h 1.11125 v -3.01625 q -0.111125,-0.03969 -0.214313,-0.07937 -0.103187,-0.04762 -0.1905,-0.111125 V 75.48037 h 1.905 v 0.309562 q -0.05556,0.05556 -0.142875,0.103188 -0.08731,0.04763 -0.214312,0.08731 v 3.01625 z"
         style="font-weight:bold;font-family:'PT Serif';-inkscape-font-specification:'PT Serif, Bold';fill:#ffffff"
         id="path4908" />
      <path
         d="m 42.125112,77.369495 q 0,-1.016 0.166688,-1.698625 0.166687,-0.690563 0.500062,-1.103313 0.341313,-0.420687 0.85725,-0.595312 0.515938,-0.174625 1.2065,-0.174625 l 0.515938,-0.396875 h 0.206375 q -0.0079,0.142875 -0.03175,0.309562 -0.02381,0.15875 -0.0635,0.309563 -0.03175,0.142875 -0.07144,0.254 -0.03175,0.111125 -0.05556,0.15875 -0.73025,0 -1.23825,0.07144 -0.508,0.07144 -0.841375,0.293688 -0.333375,0.22225 -0.508,0.642937 -0.166688,0.420688 -0.22225,1.11125 h 0.03969 q 0.09525,-0.206375 0.254,-0.396875 0.166688,-0.1905 0.373063,-0.333375 0.214312,-0.142875 0.452437,-0.230187 0.238125,-0.08731 0.484188,-0.08731 1.61925,0 1.61925,1.944688 0,0.460375 -0.127,0.849312 -0.127,0.381 -0.373063,0.658813 -0.246062,0.277812 -0.595312,0.436562 -0.34925,0.150813 -0.785813,0.150813 -0.396875,0 -0.722312,-0.142875 -0.325438,-0.150813 -0.555625,-0.428625 -0.230188,-0.28575 -0.357188,-0.682625 -0.127,-0.404813 -0.127,-0.92075 z m 0.746125,0 q 0,0.500062 0.08731,0.849312 0.09525,0.341313 0.254,0.563563 0.15875,0.214312 0.365125,0.3175 0.214312,0.09525 0.4445,0.09525 0.47625,0 0.714375,-0.428625 0.246062,-0.428625 0.246062,-1.222375 0,-0.809625 -0.309562,-1.182688 -0.309563,-0.373062 -0.85725,-0.373062 -0.206375,0 -0.452438,0.127 -0.238125,0.127 -0.404812,0.341312 -0.03969,0.198438 -0.0635,0.420688 -0.02381,0.214312 -0.02381,0.492125 z"
         style="font-family:'PT Serif';-inkscape-font-specification:'PT Serif, Normal';fill:#ffffff"
         id="path4910" />
      <path
         d="m 46.331996,75.877245 q -0.119063,-0.03175 -0.22225,-0.07937 -0.09525,-0.04762 -0.198438,-0.111125 V 75.48037 h 1.658938 v 0.198437 q -0.166688,0.111125 -0.452438,0.198438 l 1.016,2.3495 0.150813,0.492125 h 0.01588 l 0.119062,-0.500063 0.754063,-2.341562 q -0.238125,-0.04762 -0.436563,-0.1905 V 75.48037 h 1.357313 v 0.206375 q -0.166688,0.111125 -0.452438,0.1905 l -1.23825,3.571875 q -0.1905,0.508 -0.365125,0.817562 -0.166687,0.3175 -0.341312,0.500063 -0.166688,0.182562 -0.34925,0.261937 -0.174625,0.08731 -0.381,0.127 -0.08731,-0.150812 -0.15875,-0.333375 -0.0635,-0.182562 -0.111125,-0.34925 l 0.103187,-0.1905 h 0.8255 q 0.04763,-0.0635 0.07937,-0.127 0.03969,-0.05556 0.07937,-0.142875 0.03969,-0.08731 0.08731,-0.22225 0.04763,-0.134937 0.111125,-0.341312 z"
         style="font-family:'PT Serif';-inkscape-font-specification:'PT Serif, Normal';fill:#ffffff"
         id="path4912" />
      <path
         d="m 52.372428,77.32187 1.254125,1.738312 q 0.111125,0.03969 0.214313,0.08731 0.111125,0.03969 0.206375,0.103187 v 0.198438 h -1.627188 v -0.1905 q 0.111125,-0.0635 0.206375,-0.111125 0.09525,-0.05556 0.1905,-0.08731 l -0.881062,-1.30175 -0.889,1.30175 q 0.111125,0.03969 0.206375,0.08731 0.09525,0.04762 0.1905,0.103187 v 0.198438 h -1.357313 v -0.198438 q 0.22225,-0.134937 0.4445,-0.1905 l 1.182688,-1.579562 -1.190625,-1.603375 q -0.111125,-0.03969 -0.206375,-0.07937 -0.08731,-0.04762 -0.182563,-0.111125 V 75.48037 h 1.595438 v 0.198437 q -0.09525,0.0635 -0.1905,0.119063 -0.08731,0.04762 -0.198438,0.07937 l 0.8255,1.190625 0.809625,-1.190625 q -0.269875,-0.08731 -0.396875,-0.1905 V 75.48037 h 1.325563 v 0.206375 q -0.150813,0.103187 -0.4445,0.1905 z"
         style="font-family:'PT Serif';-inkscape-font-specification:'PT Serif, Normal';fill:#ffffff"
         id="path4914" />
      <path
         d="m 57.396858,75.48037 q -0.0079,0.309562 -0.03175,0.642937 -0.01588,0.333375 -0.0635,0.658813 h -0.206375 l -0.34925,-0.9525 H 55.67442 v 3.230562 q 0.452438,0.08731 0.714375,0.1905 V 79.44912 H 54.43617 v -0.198438 q 0.134938,-0.07937 0.261938,-0.119062 0.127,-0.03969 0.261937,-0.07144 V 75.869307 Q 54.666358,75.821682 54.43617,75.686745 V 75.48037 Z"
         style="font-family:'PT Serif';-inkscape-font-specification:'PT Serif, Normal';fill:#ffffff"
         id="path4916" />
      <path
         d="m 60.802043,78.409307 q 0,0.174625 0.0079,0.301625 0.0079,0.127 0.01588,0.269875 l 0.547687,0.07937 v 0.166688 q -0.198437,0.103187 -0.4445,0.182562 -0.238125,0.07937 -0.460375,0.119063 h -0.198437 q -0.07938,-0.182563 -0.09525,-0.396875 -0.01588,-0.22225 -0.02381,-0.484188 h -0.03969 q -0.03175,0.15875 -0.127,0.325438 -0.08731,0.15875 -0.238125,0.28575 -0.142875,0.127 -0.341313,0.206375 -0.198437,0.07937 -0.452437,0.07937 -0.484188,0 -0.79375,-0.293688 -0.301625,-0.293687 -0.301625,-0.769937 0,-0.365125 0.142875,-0.595313 0.150812,-0.238125 0.436562,-0.373062 0.28575,-0.134938 0.706438,-0.1905 0.420687,-0.0635 0.976312,-0.09525 0.03175,-0.341313 0.01587,-0.611188 -0.0079,-0.277812 -0.08731,-0.468312 -0.07144,-0.198438 -0.22225,-0.301625 -0.142875,-0.111125 -0.381,-0.111125 -0.111125,0 -0.254,0.01588 -0.134938,0.0079 -0.269875,0.0635 l -0.373063,0.9525 h -0.206375 q -0.07937,-0.238125 -0.142875,-0.492125 -0.05556,-0.254 -0.07144,-0.500063 0.301625,-0.182562 0.66675,-0.28575 0.373062,-0.103187 0.8255,-0.103187 0.404812,0 0.642937,0.119062 0.246063,0.111125 0.373063,0.293688 0.127,0.182562 0.166687,0.404812 0.03969,0.22225 0.03969,0.4445 0,0.47625 -0.02381,0.92075 -0.01588,0.436563 -0.01588,0.841375 z m -1.531937,0.642938 q 0.198437,0 0.34925,-0.07937 0.150812,-0.07937 0.254,-0.1905 0.103187,-0.111125 0.166687,-0.22225 0.0635,-0.119063 0.08731,-0.198438 v -0.833437 q -0.460375,0 -0.754063,0.04762 -0.293687,0.04763 -0.460375,0.150812 -0.166687,0.103188 -0.230187,0.261938 -0.0635,0.150812 -0.0635,0.34925 0,0.341312 0.174625,0.531812 0.174625,0.182563 0.47625,0.182563 z"
         style="font-family:'PT Serif';-inkscape-font-specification:'PT Serif, Normal';fill:#ffffff"
         id="path4918" />
      <path
         d="m 62.373661,78.766495 q 0.111125,-0.1905 0.198438,-0.508 0.08731,-0.3175 0.142875,-0.6985 0.0635,-0.381 0.09525,-0.79375 0.03175,-0.420688 0.03175,-0.809625 -0.15875,-0.04762 -0.293688,-0.119063 -0.127,-0.07144 -0.238125,-0.150812 V 75.48037 h 3.246438 v 0.206375 q -0.254,0.142875 -0.523875,0.1905 v 3.182937 q 0.166687,0.03969 0.293687,0.08731 0.127,0.04762 0.230188,0.103187 v 0.198438 h -1.706563 v -0.198438 q 0.1905,-0.134937 0.468313,-0.1905 V 75.82962 h -1.04775 q -0.0079,0.420687 -0.04762,0.896937 -0.03969,0.468313 -0.119063,0.928688 -0.07937,0.452437 -0.206375,0.85725 -0.127,0.396875 -0.309562,0.66675 -0.150813,0.230187 -0.325438,0.3175 -0.174625,0.09525 -0.325437,0.0635 -0.119063,-0.134938 -0.230188,-0.34925 -0.103187,-0.22225 -0.119062,-0.404813 l 0.111125,-0.198437 z"
         style="font-family:'PT Serif';-inkscape-font-specification:'PT Serif, Normal';fill:#ffffff"
         id="path4920" />
      <path
         d="m 68.71572,79.44912 h -1.762125 v -0.198438 q 0.246063,-0.127 0.523875,-0.1905 V 75.82962 h -0.738187 l -0.34925,0.9525 h -0.206375 q -0.03969,-0.341313 -0.0635,-0.66675 -0.02381,-0.333375 -0.03175,-0.635 h 3.4925 q -0.0079,0.28575 -0.03175,0.627062 -0.01588,0.333375 -0.0635,0.674688 h -0.206375 l -0.34925,-0.9525 h -0.738188 v 3.230562 q 0.373063,0.09525 0.523875,0.1905 z"
         style="font-family:'PT Serif';-inkscape-font-specification:'PT Serif, Normal';fill:#ffffff"
         id="path4922" />
      <path
         d="m 73.335352,78.893495 q -0.0635,0.134937 -0.198437,0.254 -0.134938,0.119062 -0.309563,0.206375 -0.174625,0.08731 -0.381,0.134937 -0.206375,0.05556 -0.420687,0.05556 -0.468313,0 -0.8255,-0.142875 -0.357188,-0.150813 -0.595313,-0.420688 -0.238125,-0.277812 -0.365125,-0.658812 -0.119062,-0.381 -0.119062,-0.85725 0,-1.016 0.468312,-1.547813 0.468313,-0.531812 1.325563,-0.531812 0.277812,0 0.547687,0.07937 0.269875,0.07144 0.47625,0.246062 0.214313,0.174625 0.341313,0.468313 0.134937,0.28575 0.134937,0.714375 0,0.134937 -0.01587,0.277812 -0.0079,0.134938 -0.03969,0.293688 h -2.4765 q 0,0.333375 0.07937,0.627062 0.08731,0.28575 0.254,0.500063 0.166687,0.214312 0.420687,0.341312 0.254,0.119063 0.595313,0.119063 0.277812,0 0.563562,-0.07937 0.28575,-0.07937 0.428625,-0.206375 z M 71.88279,75.73437 q -0.452438,0 -0.690563,0.309562 -0.238125,0.301625 -0.28575,1.071563 h 1.74625 q 0.0079,-0.07144 0.0079,-0.134938 0.0079,-0.07144 0.0079,-0.134937 0,-0.508 -0.1905,-0.809625 -0.1905,-0.301625 -0.595312,-0.301625 z"
         style="font-family:'PT Serif';-inkscape-font-specification:'PT Serif, Normal';fill:#ffffff"
         id="path4924" />
      <path
         d="m 75.795976,81.03662 h -1.762125 v -0.198438 q 0.269875,-0.127 0.523875,-0.1905 v -4.706937 l -0.523875,-0.0635 V 75.67087 q 0.254,-0.111125 0.515937,-0.174625 0.269875,-0.07144 0.523875,-0.111125 h 0.198438 v 0.889 h 0.0079 q 0.15875,-0.404813 0.4445,-0.642938 0.28575,-0.246062 0.746125,-0.246062 0.706438,0 1.095375,0.468312 0.388938,0.468313 0.388938,1.524 0,0.500063 -0.134938,0.904875 -0.127,0.404813 -0.373062,0.682625 -0.238125,0.277813 -0.587375,0.428625 -0.341313,0.150813 -0.762,0.150813 -0.293688,0 -0.460375,-0.03969 -0.166688,-0.03175 -0.365125,-0.119062 v 1.262062 q 0.127,0.01587 0.254,0.05556 0.127,0.04763 0.269875,0.134937 z m 0.420687,-5.159375 q -0.388937,0 -0.619125,0.246062 -0.230187,0.246063 -0.325437,0.674688 v 2.2225 q 0.142875,0.08731 0.3175,0.134937 0.182562,0.03969 0.468312,0.03969 0.261938,0 0.468313,-0.134938 0.214312,-0.134937 0.357187,-0.381 0.150813,-0.246062 0.230188,-0.5715 0.07937,-0.333375 0.07937,-0.73025 0,-0.325437 -0.05556,-0.595312 -0.04762,-0.277813 -0.166687,-0.47625 -0.111125,-0.206375 -0.301625,-0.3175 -0.182563,-0.111125 -0.452438,-0.111125 z"
         style="font-family:'PT Serif';-inkscape-font-specification:'PT Serif, Normal';fill:#ffffff"
         id="path4926" />
    </g>
  </g>
</svg>
